<svg width="321" height="91" viewBox="0 0 321 91" fill="none" xmlns="http://www.w3.org/2000/svg">
<path d="M2.47998 66.7017H6.53271C9.14502 66.7017 11.0859 67.0272 12.3555 67.6782C13.625 68.3211 14.6707 69.3709 15.4927 70.8276C16.3146 72.2843 16.7256 73.9852 16.7256 75.9302C16.7256 77.3136 16.4937 78.5872 16.0298 79.751C15.5741 80.9066 14.9393 81.8669 14.1255 82.6318C13.3198 83.3968 12.445 83.9258 11.501 84.2188C10.557 84.5117 8.92122 84.6582 6.59375 84.6582H2.47998V66.7017ZM5.88574 69.9976V81.3135H7.47266C9.03516 81.3135 10.1663 81.1344 10.8662 80.7764C11.5742 80.4183 12.152 79.8161 12.5996 78.9697C13.0472 78.1234 13.271 77.0817 13.271 75.8447C13.271 73.9404 12.738 72.4634 11.6719 71.4136C10.7116 70.4696 9.16943 69.9976 7.04541 69.9976H5.88574ZM19.9849 66.7017H29.7871V70.0464H23.3784V73.2935H29.7871V76.5771H23.3784V81.3013H29.7871V84.6582H19.9849V66.7017ZM33.0342 66.7017H41.9453V70.0342H36.4155V73.2935H41.9453V76.5771H36.4155V84.6582H33.0342V66.7017ZM45.0093 66.7017H54.8115V70.0464H48.4028V73.2935H54.8115V76.5771H48.4028V81.3013H54.8115V84.6582H45.0093V66.7017ZM58.022 66.7017H61.2935L68.9961 78.5181V66.7017H72.4141V84.6582H69.1304L61.4399 72.8784V84.6582H58.022V66.7017ZM93.0195 69.8633L90.627 72.146C88.9993 70.4289 87.1683 69.5703 85.1338 69.5703C83.4167 69.5703 81.9681 70.1562 80.7881 71.3281C79.6162 72.5 79.0303 73.9445 79.0303 75.6616C79.0303 76.8579 79.2907 77.9199 79.8115 78.8477C80.3324 79.7754 81.0688 80.5037 82.021 81.0327C82.9731 81.5617 84.0311 81.8262 85.1948 81.8262C86.1877 81.8262 87.0951 81.6431 87.917 81.2769C88.7389 80.9025 89.6423 80.2271 90.627 79.2505L92.9463 81.6675C91.6198 82.9614 90.3665 83.8607 89.1865 84.3652C88.0065 84.8617 86.6597 85.1099 85.146 85.1099C82.3547 85.1099 80.0679 84.2269 78.2856 82.4609C76.5116 80.6868 75.6245 78.4163 75.6245 75.6494C75.6245 73.859 76.0273 72.2681 76.833 70.8765C77.6468 69.4849 78.8065 68.3659 80.312 67.5195C81.8257 66.6732 83.4533 66.25 85.1948 66.25C86.6759 66.25 88.1001 66.5633 89.4673 67.1899C90.8426 67.8166 92.0267 68.7077 93.0195 69.8633ZM96.0347 66.7017H105.837V70.0464H99.4282V73.2935H105.837V76.5771H99.4282V81.3013H105.837V84.6582H96.0347V66.7017ZM121.511 66.7017H124.978L131.887 84.6582H128.334L126.931 80.9595H119.606L118.142 84.6582H114.589L121.511 66.7017ZM123.269 71.4624L120.876 77.627H125.649L123.269 71.4624ZM134.56 66.7017H137.832L145.534 78.5181V66.7017H148.952V84.6582H145.668L137.978 72.8784V84.6582H134.56V66.7017ZM153.066 66.7017H157.119C159.731 66.7017 161.672 67.0272 162.941 67.6782C164.211 68.3211 165.257 69.3709 166.079 70.8276C166.901 72.2843 167.312 73.9852 167.312 75.9302C167.312 77.3136 167.08 78.5872 166.616 79.751C166.16 80.9066 165.525 81.8669 164.711 82.6318C163.906 83.3968 163.031 83.9258 162.087 84.2188C161.143 84.5117 159.507 84.6582 157.18 84.6582H153.066V66.7017ZM156.472 69.9976V81.3135H158.059C159.621 81.3135 160.752 81.1344 161.452 80.7764C162.16 80.4183 162.738 79.8161 163.186 78.9697C163.633 78.1234 163.857 77.0817 163.857 75.8447C163.857 73.9404 163.324 72.4634 162.258 71.4136C161.298 70.4696 159.755 69.9976 157.631 69.9976H156.472ZM183.034 66.7017H186.501L193.41 84.6582H189.858L188.454 80.9595H181.13L179.665 84.6582H176.113L183.034 66.7017ZM184.792 71.4624L182.399 77.627H187.172L184.792 71.4624ZM196.083 66.7017H205.886V70.0464H199.477V73.2935H205.886V76.5771H199.477V81.3013H205.886V84.6582H196.083V66.7017ZM209.316 66.7017H212.941C214.927 66.7017 216.339 66.8807 217.177 67.2388C218.024 67.5887 218.703 68.1746 219.216 68.9966C219.729 69.8185 219.985 70.791 219.985 71.9141C219.985 73.0941 219.7 74.0828 219.13 74.8804C218.569 75.6698 217.718 76.2679 216.579 76.6748L220.827 84.6582H217.092L213.051 77.0532H212.734V84.6582H209.316V66.7017ZM212.734 73.7207H213.808C214.899 73.7207 215.647 73.5783 216.054 73.2935C216.469 73.0086 216.677 72.5366 216.677 71.8774C216.677 71.4868 216.575 71.1491 216.372 70.8643C216.168 70.5713 215.896 70.3638 215.554 70.2417C215.212 70.1115 214.585 70.0464 213.674 70.0464H212.734V73.7207ZM232.07 66.25C234.609 66.25 236.79 67.1696 238.613 69.0088C240.444 70.848 241.359 73.09 241.359 75.7349C241.359 78.3553 240.456 80.5729 238.649 82.3877C236.851 84.2025 234.666 85.1099 232.094 85.1099C229.401 85.1099 227.163 84.1781 225.38 82.3145C223.598 80.4508 222.707 78.2373 222.707 75.6738C222.707 73.9567 223.122 72.3779 223.952 70.9375C224.782 69.4971 225.922 68.3577 227.37 67.5195C228.827 66.6732 230.393 66.25 232.07 66.25ZM232.033 69.5947C230.373 69.5947 228.977 70.1725 227.846 71.3281C226.715 72.4837 226.149 73.9526 226.149 75.7349C226.149 77.7205 226.861 79.2912 228.286 80.4468C229.392 81.3501 230.662 81.8018 232.094 81.8018C233.714 81.8018 235.093 81.2158 236.232 80.0439C237.372 78.8721 237.941 77.4276 237.941 75.7104C237.941 74.0015 237.368 72.557 236.22 71.377C235.073 70.1888 233.677 69.5947 232.033 69.5947ZM253.994 69.1431L251.467 71.377C250.58 70.14 249.676 69.5215 248.757 69.5215C248.309 69.5215 247.943 69.6436 247.658 69.8877C247.373 70.1237 247.231 70.3923 247.231 70.6934C247.231 70.9945 247.333 71.2793 247.536 71.5479C247.813 71.9059 248.647 72.675 250.039 73.855C251.341 74.9455 252.13 75.6331 252.407 75.918C253.098 76.6178 253.587 77.2892 253.872 77.9321C254.165 78.5669 254.311 79.2627 254.311 80.0195C254.311 81.4925 253.802 82.7091 252.785 83.6694C251.768 84.6297 250.441 85.1099 248.806 85.1099C247.528 85.1099 246.413 84.7965 245.461 84.1699C244.517 83.5433 243.707 82.5586 243.032 81.2158L245.9 79.4824C246.763 81.0693 247.756 81.8628 248.879 81.8628C249.465 81.8628 249.957 81.6919 250.356 81.3501C250.755 81.0083 250.954 80.6136 250.954 80.166C250.954 79.7591 250.804 79.3522 250.502 78.9453C250.201 78.5384 249.538 77.9159 248.513 77.0776C246.56 75.4826 245.298 74.2537 244.729 73.3911C244.159 72.5203 243.874 71.6536 243.874 70.791C243.874 69.5459 244.346 68.4798 245.29 67.5928C246.242 66.6976 247.414 66.25 248.806 66.25C249.701 66.25 250.551 66.4575 251.357 66.8726C252.171 67.2876 253.05 68.0444 253.994 69.1431ZM257.583 66.7017H261.208C263.169 66.7017 264.581 66.8848 265.444 67.251C266.315 67.609 266.998 68.195 267.495 69.0088C267.999 69.8145 268.251 70.7829 268.251 71.9141C268.251 73.1673 267.922 74.209 267.263 75.0391C266.612 75.8691 265.725 76.4469 264.602 76.7725C263.942 76.9596 262.742 77.0532 261 77.0532V84.6582H257.583V66.7017ZM261 73.7207H262.087C262.941 73.7207 263.535 73.6597 263.869 73.5376C264.203 73.4155 264.463 73.2161 264.65 72.9395C264.846 72.6546 264.943 72.3128 264.943 71.9141C264.943 71.2223 264.675 70.7178 264.138 70.4004C263.747 70.1644 263.023 70.0464 261.965 70.0464H261V73.7207ZM277.077 66.7017H280.544L287.453 84.6582H283.901L282.497 80.9595H275.173L273.708 84.6582H270.156L277.077 66.7017ZM278.835 71.4624L276.442 77.627H281.215L278.835 71.4624ZM306.618 69.8633L304.226 72.146C302.598 70.4289 300.767 69.5703 298.732 69.5703C297.015 69.5703 295.567 70.1562 294.387 71.3281C293.215 72.5 292.629 73.9445 292.629 75.6616C292.629 76.8579 292.889 77.9199 293.41 78.8477C293.931 79.7754 294.667 80.5037 295.62 81.0327C296.572 81.5617 297.63 81.8262 298.793 81.8262C299.786 81.8262 300.694 81.6431 301.516 81.2769C302.338 80.9025 303.241 80.2271 304.226 79.2505L306.545 81.6675C305.218 82.9614 303.965 83.8607 302.785 84.3652C301.605 84.8617 300.258 85.1099 298.745 85.1099C295.953 85.1099 293.667 84.2269 291.884 82.4609C290.11 80.6868 289.223 78.4163 289.223 75.6494C289.223 73.859 289.626 72.2681 290.432 70.8765C291.245 69.4849 292.405 68.3659 293.911 67.5195C295.424 66.6732 297.052 66.25 298.793 66.25C300.275 66.25 301.699 66.5633 303.066 67.1899C304.441 67.8166 305.625 68.7077 306.618 69.8633ZM309.633 66.7017H319.436V70.0464H313.027V73.2935H319.436V76.5771H313.027V81.3013H319.436V84.6582H309.633V66.7017Z" fill="white"/>
<path d="M156.017 27.483C156.017 21.1033 155.979 14.7236 156.017 8.34386C156.055 3.10123 158.35 0.174016 162.94 0.0877022C173.649 -0.043645 184.322 -0.000450082 195.032 0.0445832C196.404 -0.0904996 197.777 0.288379 198.943 1.12393C200.109 1.95948 201.006 3.20621 201.496 4.67549C201.978 5.93782 202.118 7.33537 201.9 8.68944C201.682 10.0435 201.115 11.2925 200.272 12.2767C199.529 13.1455 198.623 13.8125 197.624 14.2285C196.624 14.6445 195.555 14.7989 194.496 14.6804C186.808 14.6804 179.082 14.6373 171.394 14.7236C170.59 14.7236 169.136 15.1608 169.061 15.598C168.864 17.1537 168.915 18.7374 169.213 20.272C169.251 20.5779 170.515 20.7524 171.203 20.7524C178.968 20.7955 186.732 20.7524 194.531 20.8406C195.79 20.8408 197.041 21.0617 198.242 21.4954C199.299 21.8816 200.222 22.6382 200.881 23.6578C201.54 24.6773 201.902 25.908 201.914 27.1753C202.001 28.4715 201.731 29.7664 201.142 30.8787C200.553 31.991 199.674 32.8651 198.628 33.3786C197.337 33.9577 195.961 34.2543 194.574 34.253C186.808 34.3412 179.044 34.4275 171.246 34.2962C168.988 34.253 168.836 35.4314 168.836 37.441C168.836 39.4074 169.026 40.4995 171.168 40.4563C179.125 40.325 187.118 40.3681 195.075 40.4132C199.359 40.4563 202.037 43.4717 201.997 47.9187C202.001 49.5273 201.515 51.0872 200.622 52.3308C199.728 53.5743 198.484 54.4239 197.102 54.7338C196.117 54.9314 195.118 55.0193 194.119 54.9965H164.011C158.35 54.9965 156.055 52.3695 156.055 45.866C156.017 39.7489 156.017 33.6338 156.017 27.4774" fill="white"/>
<path d="M273.03 27.4113C273.03 20.9255 272.992 14.483 273.03 7.99719C273.067 3.00203 275.396 0.0658744 279.709 0.0658744C291.234 -0.0219581 302.762 -0.0219581 314.292 0.0658744C318.567 0.109163 320.971 3.13375 320.971 8.04234C321.01 20.9663 321.01 33.894 320.971 46.8255C320.971 51.8658 318.491 54.9337 314.14 54.9337C302.691 55.0221 291.203 55.0221 279.754 54.9337C275.442 54.8904 273.034 51.9091 273 47.0024C273 40.4733 273.038 33.9423 273.038 27.4132M308.113 27.7633C308.113 24.2569 308.075 20.7523 308.113 17.2892C308.151 15.4485 307.426 14.6543 305.861 14.6543H287.996C286.507 14.6543 285.82 15.4862 285.82 17.1951V37.7103C285.82 39.5077 286.507 40.383 288.115 40.383H305.773C307.412 40.383 308.177 39.551 308.139 37.6219C308.062 34.2905 308.102 31.0476 308.102 27.7614" fill="white"/>
<path d="M99.0252 27.4832V7.85893C98.9026 6.28656 99.2302 4.71112 99.9567 3.37933C100.683 2.04753 101.768 1.03457 103.04 0.499101C104.301 -0.0655241 105.682 -0.153516 106.989 0.247513C108.295 0.648542 109.46 1.51837 110.32 2.73417C114.672 8.25401 119.101 13.7719 123.536 19.2485C125.263 21.3951 125.712 21.3951 127.44 19.2485C131.718 13.9488 136.034 8.64718 140.237 3.21575C141.104 1.86444 142.317 0.871938 143.701 0.383182C145.086 -0.105574 146.567 -0.0649727 147.93 0.499101C150.67 1.55077 151.984 4.31072 151.984 8.51552C151.984 21.4384 152.021 34.3594 151.984 47.3275C152.026 49.0857 151.528 50.8036 150.58 52.1709C149.632 53.5381 148.297 54.4644 146.815 54.7825C145.333 55.1006 143.802 54.7894 142.499 53.9053C141.197 53.0211 140.208 51.6222 139.712 49.9614C139.468 49.0246 139.354 48.0485 139.373 47.0697C139.336 42.2949 139.41 37.4749 139.298 32.702C139.133 31.4263 138.843 30.177 138.434 28.9788C137.426 29.4449 136.468 30.048 135.581 30.7755C133.818 32.5722 132.241 34.6304 130.552 36.5569C127.168 40.3685 123.76 40.3685 120.419 36.5569C118.693 34.5852 117.08 32.4838 115.278 30.6438C114.435 29.9432 113.513 29.3828 112.538 28.9788C112.143 30.0278 111.866 31.1319 111.713 32.2636C111.637 37.1269 111.676 41.9883 111.676 46.8515C111.676 51.6264 109.049 54.9563 105.371 54.9996C101.655 55.0428 99.0654 51.7148 99.0284 46.9399V27.4832" fill="white"/>
<path d="M229.611 0.0192608C234.576 0.0192608 239.578 -0.024076 244.536 0.0192608C249.69 0.0625977 251.982 2.69482 251.982 8.48688C252.019 14.8932 251.944 21.2995 251.982 27.7059C252.088 29.3172 251.731 30.9241 250.966 32.2796C250.2 33.6352 249.068 34.6643 247.744 35.2088C245.682 36.2187 245.567 37.1834 247.171 39.0695C248.126 40.2095 249.157 41.308 250.112 42.4913C250.713 43.1798 251.189 43.9985 251.513 44.9C251.837 45.8015 252.002 46.7679 251.998 47.7431C251.995 48.7184 251.823 49.6831 251.493 50.5815C251.162 51.4799 250.68 52.294 250.074 52.9769C248.821 54.3213 247.159 55.047 245.445 54.9976C243.731 54.9483 242.102 54.1279 240.91 52.7131C236.404 47.6257 231.897 42.5384 227.545 37.3134C225.598 34.945 223.307 35.5592 221.053 35.9097C220.596 35.9983 220.022 37.402 219.984 38.1915C219.869 41.1742 219.946 44.1135 219.907 47.0981C219.956 48.1108 219.824 49.1242 219.519 50.0762C219.215 51.0282 218.744 51.8985 218.136 52.634C217.528 53.3694 216.796 53.9543 215.984 54.3529C215.172 54.7514 214.298 54.9551 213.415 54.9515C212.549 54.9498 211.692 54.7457 210.896 54.3517C210.1 53.9577 209.382 53.382 208.786 52.6596C208.189 51.9371 207.727 51.0829 207.427 50.1489C207.126 49.2149 206.994 48.2206 207.039 47.2263C207.001 41.0404 207.001 34.8545 207.039 28.712C206.963 27.754 207.06 26.7883 207.323 25.8752C207.587 24.9621 208.011 24.1213 208.57 23.405C209.129 22.6888 209.811 22.1126 210.572 21.7124C211.333 21.3122 212.158 21.0966 212.996 21.0791C218.572 20.772 224.148 20.9039 229.724 20.8605C232.053 20.8605 234.384 20.772 236.675 20.8605C238.661 20.9491 239.158 19.7639 239.158 17.7459C239.158 15.7279 238.666 14.588 236.675 14.588C229.304 14.6313 221.934 14.588 214.565 14.6313C213.24 14.7953 211.902 14.5185 210.71 13.8341C209.518 13.1497 208.522 12.0864 207.841 10.7706C207.319 9.74734 207.031 8.58932 207.002 7.40384C206.974 6.21836 207.207 5.04387 207.679 3.98934C208.151 2.93481 208.848 2.03438 209.704 1.37164C210.56 0.708898 211.548 0.305294 212.576 0.198263C218.19 -0.108863 223.841 0.109711 229.493 0.109711V0.0211584L229.611 0.0192608Z" fill="white"/>
<path d="M23.4621 24.4282C21.1155 29.9548 19.0763 34.8291 16.7281 40.3556C18.921 40.3556 20.6148 40.3126 22.307 40.3556C23.5944 40.3427 24.8534 40.7843 25.9085 41.6188C26.9635 42.4533 27.7622 43.6392 28.1933 45.0112C28.7318 46.2537 28.8881 47.6641 28.6372 49.0184C28.3863 50.3728 27.7427 51.5936 26.8085 52.4871C25.4056 53.8153 23.6741 54.6208 21.8509 54.7935C16.8487 55.0981 11.8465 55.0103 6.8129 54.8813C1.19431 54.7505 -1.53732 49.5285 0.88694 43.7852C6.42731 30.6862 11.955 17.6033 17.47 4.5367C17.9333 3.18992 18.7488 2.03501 19.8077 1.22618C20.8665 0.417351 22.1183 -0.00689788 23.396 0.0100458C24.6785 -0.0679376 25.9504 0.309621 27.0338 1.08981C28.1171 1.86999 28.9576 3.01375 29.4377 4.36103C35.0166 17.5896 40.6352 30.7753 46.1744 44.0488C46.959 45.6305 47.1951 47.4857 46.8366 49.2535C46.4782 51.0212 45.551 52.5748 44.2355 53.6119C42.92 54.6489 41.3103 55.0951 39.7198 54.8638C38.1294 54.6324 36.6719 53.7399 35.6313 52.3601C35.0936 51.5839 34.6414 50.7366 34.2845 49.8369C31.0522 42.2657 27.8975 34.6982 24.6652 27.1644C24.3574 26.2038 23.9573 25.2844 23.472 24.4226" fill="white"/>
<path d="M51.0088 27.304V7.70676C50.9639 6.71442 51.0913 5.72172 51.3834 4.78918C51.6754 3.85665 52.126 3.00381 52.7075 2.2827C53.289 1.56159 53.9893 0.987306 54.7657 0.594849C55.5422 0.202391 56.3784 0 57.2236 0C58.0687 0 58.905 0.202391 59.6814 0.594849C60.4579 0.987306 61.1582 1.56159 61.7397 2.2827C62.3212 3.00381 62.7717 3.85665 63.0638 4.78918C63.3558 5.72172 63.4833 6.71442 63.4384 7.70676C63.4751 17.2911 63.4384 26.8755 63.4384 36.4599C63.4384 40.0474 63.6989 40.3538 66.7947 40.3538C73.6416 40.3538 80.4885 40.3105 87.337 40.397C91.4684 40.4402 94.072 43.5035 93.9985 47.9668C93.9732 49.4964 93.523 50.9743 92.7168 52.1751C91.9106 53.3759 90.7924 54.2337 89.533 54.6176C88.5171 54.866 87.4811 54.9832 86.4436 54.9671C77.1407 55.011 67.8373 55.011 58.5334 54.9671C53.2495 54.9671 51.0216 52.2985 51.0216 46.0405V27.3134" fill="white"/>
<path d="M268.988 27.7663V47.2254C269.041 48.2177 268.916 49.2118 268.621 50.1474C268.327 51.0829 267.869 51.9403 267.275 52.6674C266.681 53.3946 265.964 53.9763 265.167 54.3772C264.37 54.7781 263.51 54.9899 262.639 54.9996C261.751 55.0104 260.871 54.8149 260.051 54.4251C259.232 54.0353 258.49 53.4593 257.872 52.7321C257.254 52.0049 256.771 51.1417 256.454 50.195C256.138 49.2483 255.993 48.238 256.029 47.2254C255.99 34.0049 255.99 20.8259 256.029 7.60916C256.005 6.61994 256.155 5.63526 256.47 4.71334C256.785 3.79141 257.259 2.95094 257.863 2.24158C258.467 1.53223 259.19 0.968379 259.989 0.583367C260.788 0.198355 261.646 0 262.513 0C263.379 0 264.238 0.198355 265.036 0.583367C265.835 0.968379 266.558 1.53223 267.162 2.24158C267.767 2.95094 268.24 3.79141 268.556 4.71334C268.871 5.63526 269.021 6.61994 268.997 7.60916V27.77" fill="white"/>
</svg>
